<?xml version="1.0" standalone="no"?>
<!DOCTYPE svg PUBLIC "-//W3C//DTD SVG 20010904//EN"
 "http://www.w3.org/TR/2001/REC-SVG-20010904/DTD/svg10.dtd">
<svg version="1.0" xmlns="http://www.w3.org/2000/svg"
 width="918.000000pt" height="61.000000pt" viewBox="0 0 918.000000 61.000000"
 preserveAspectRatio="xMidYMid meet">

<g transform="translate(0.000000,61.000000) scale(0.100000,-0.100000)"
fill="#fff" stroke="none">
<path d="M10 311 l0 -291 60 0 60 0 0 75 0 75 63 0 c98 0 158 22 206 76 96
110 69 263 -59 330 -28 14 -65 19 -182 22 l-148 4 0 -291z m279 144 c51 -26
56 -82 12 -126 -27 -27 -35 -29 -100 -29 l-71 0 0 85 0 85 65 0 c38 0 78 -6
94 -15z"/>
<path d="M510 311 l0 -291 60 0 60 0 0 75 0 75 35 0 c31 0 40 -7 81 -62 25
-35 49 -69 53 -76 5 -9 29 -12 84 -10 l77 3 -59 83 -58 84 47 47 c62 62 82
132 60 213 -14 49 -52 94 -104 120 -35 19 -62 23 -188 26 l-148 4 0 -291z
m301 130 c28 -35 24 -77 -10 -112 -27 -27 -35 -29 -100 -29 l-71 0 0 86 0 86
81 -4 c70 -3 83 -6 100 -27z"/>
<path d="M1050 310 l0 -290 185 0 185 0 0 65 0 65 -125 0 -125 0 0 55 0 55
120 0 120 0 0 65 0 65 -120 0 -120 0 0 40 0 40 125 0 125 0 0 65 0 65 -185 0
-185 0 0 -290z"/>
<path d="M1550 310 l0 -292 148 4 c168 4 211 17 277 83 57 58 80 116 80 205 0
89 -23 147 -80 205 -66 66 -109 79 -277 83 l-148 4 0 -292z m283 146 c88 -38
124 -141 76 -225 -31 -56 -85 -81 -172 -81 l-67 0 0 160 0 160 65 0 c36 0 80
-6 98 -14z"/>
<path d="M2255 588 c-2 -7 -36 -138 -74 -291 l-69 -278 66 3 66 3 42 168 c23
93 44 170 46 173 3 2 32 -74 65 -169 l61 -172 64 -3 65 -3 58 163 c31 90 60
169 64 176 4 8 27 -62 52 -160 l44 -173 67 -3 66 -3 -69 273 c-38 149 -72 280
-75 290 -5 16 -15 18 -72 16 l-65 -3 -65 -183 c-45 -125 -68 -179 -74 -168 -4
8 -31 79 -59 158 -28 78 -55 155 -61 171 -9 26 -13 27 -74 27 -43 0 -66 -4
-69 -12z"/>
<path d="M3020 310 l0 -290 185 0 185 0 0 65 0 65 -125 0 -125 0 0 55 0 55
120 0 120 0 0 65 0 65 -120 0 -120 0 0 40 0 40 125 0 125 0 0 65 0 65 -185 0
-185 0 0 -290z"/>
<path d="M3470 535 l0 -65 85 0 85 0 0 -225 0 -225 65 0 65 0 0 225 0 225 85
0 85 0 0 65 0 65 -235 0 -235 0 0 -65z"/>
<path d="M4350 310 c0 -251 2 -290 15 -290 13 0 15 22 15 140 l0 140 145 0
c138 0 145 1 145 20 0 19 -7 20 -145 20 l-145 0 0 110 0 110 145 0 c138 0 145
1 145 20 0 19 -7 20 -160 20 l-160 0 0 -290z"/>
<path d="M4882 372 l3 -229 28 -41 c41 -63 94 -86 197 -86 120 0 179 32 215
117 22 53 22 467 0 467 -13 0 -15 -28 -15 -187 -1 -245 -10 -282 -84 -337 -23
-18 -42 -21 -116 -21 -74 0 -93 3 -116 21 -74 55 -83 92 -84 342 0 158 -2 182
-16 182 -14 0 -15 -26 -12 -228z"/>
<path d="M5560 311 c0 -252 2 -291 15 -291 12 0 15 18 15 105 l0 105 68 -1 67
0 84 -110 c67 -87 86 -107 97 -98 15 13 16 12 -80 134 -30 38 -52 73 -50 77 3
4 15 8 26 8 32 0 104 79 118 129 22 85 -11 167 -85 205 -31 16 -64 21 -157 24
l-118 4 0 -291z m256 229 c99 -48 99 -187 -1 -245 -36 -22 -54 -25 -133 -25
l-92 0 0 145 0 145 92 0 c72 0 101 -4 134 -20z"/>
<path d="M6130 312 c0 -251 2 -292 15 -292 12 0 15 37 17 247 l3 247 228 -252
c126 -139 231 -252 233 -252 2 0 4 133 4 295 0 287 -1 295 -20 295 -19 0 -20
-8 -22 -247 l-3 -247 -199 219 c-109 121 -212 233 -227 250 l-29 30 0 -293z"/>
<path d="M6840 310 c0 -251 2 -290 15 -290 13 0 15 39 15 290 0 251 -2 290
-15 290 -13 0 -15 -39 -15 -290z"/>
<path d="M6990 580 c0 -19 7 -20 100 -20 l100 0 0 -270 c0 -263 0 -270 20
-270 20 0 20 7 20 270 l0 270 100 0 c93 0 100 1 100 20 0 19 -7 20 -220 20
-213 0 -220 -1 -220 -20z"/>
<path d="M7612 372 l3 -229 28 -41 c41 -63 94 -86 197 -86 120 0 179 32 215
117 22 53 22 467 0 467 -13 0 -15 -28 -15 -187 -1 -245 -10 -282 -84 -337 -23
-18 -42 -21 -116 -21 -74 0 -93 3 -116 21 -74 55 -83 92 -84 342 0 158 -2 182
-16 182 -14 0 -15 -26 -12 -228z"/>
<path d="M8280 311 c0 -252 2 -291 15 -291 12 0 15 18 15 105 l0 105 68 -1 67
0 84 -110 c67 -87 86 -107 97 -98 15 13 16 12 -80 134 -30 38 -52 73 -50 77 3
4 15 8 26 8 32 0 104 79 118 129 22 85 -11 167 -85 205 -31 16 -64 21 -157 24
l-118 4 0 -291z m256 229 c99 -48 99 -187 -1 -245 -36 -22 -54 -25 -133 -25
l-92 0 0 145 0 145 92 0 c72 0 101 -4 134 -20z"/>
<path d="M8860 310 l0 -290 155 0 c148 0 155 1 155 20 0 19 -7 20 -140 20
l-140 0 0 120 0 120 140 0 c133 0 140 1 140 20 0 19 -7 20 -140 20 l-140 0 0
110 0 110 140 0 c133 0 140 1 140 20 0 19 -7 20 -155 20 l-155 0 0 -290z"/>
<path d="M4052 124 c-48 -33 -17 -114 44 -114 23 0 64 42 64 65 0 23 -41 65
-64 65 -12 0 -32 -7 -44 -16z"/>
</g>
</svg>
